# xmcd
#
# Track frame offsets:
#	150
#	17253
#	36902
#	52373
#	67163
#	81504
#	106847
#	125358
#	144129
#	163943
#	191534
#	211235
#	227676
#	243864
#
# Disc length: 3640 seconds
#
# Revision: 1
# Processed by: cddbd v1.5.2PL0 Copyright (c) Steve Scherf et al.
# Submitted via: audiograbber 1.83.01
#
DISCID=bf0e360e
DTITLE=Daniel - Raizes
DYEAR=2010
DGENRE=Country
TTITLE0=Disparada
TTITLE1=Te Cuida, Coracao
TTITLE2=Eu Sem Voce
TTITLE3=Por Amor Vai Sofrer
TTITLE4=Pra Sempre Te Amar
TTITLE5=Pot-Pourri - So Da Voce Na Minha Vida, Adoro Amar Voce
TTITLE6=Dificil Nao Falar De Amor
TTITLE7=So o Amor
TTITLE8=Tenho Que Sonhar
TTITLE9=Pot-Pourri - Poeira Da Estrada,Dia De Visita,Fazenda Sao Francisco
TTITLE10=Pot-Pourri - Minha Estrela Perdida,Desejo de Amar
TTITLE11=Do Outro Lado do Radio
TTITLE12=Quando o Coracao se Apaixona
TTITLE13=Pot-Pourri - Eu me Amarrei,Peao Apaixonado
EXTD=
EXTT0=
EXTT1=
EXTT2=
EXTT3=
EXTT4=
EXTT5=
EXTT6=
EXTT7=
EXTT8=
EXTT9=
EXTT10=
EXTT11=
EXTT12=
EXTT13=
PLAYORDER=
